<svg width="17" height="20" viewBox="0 0 17 20" fill="none" xmlns="http://www.w3.org/2000/svg">
<path d="M13.0306 0.469375C12.9609 0.399749 12.8782 0.344539 12.7871 0.306898C12.6961 0.269257 12.5985 0.249923 12.5 0.25H5C4.60218 0.25 4.22064 0.408035 3.93934 0.68934C3.65804 0.970645 3.5 1.35218 3.5 1.75V3.1875V3.25H3.4375H2C1.60218 3.25 1.22064 3.40804 0.93934 3.68934C0.658035 3.97064 0.5 4.35218 0.5 4.75V18.25C0.5 18.6478 0.658035 19.0294 0.93934 19.3107C1.22064 19.592 1.60218 19.75 2 19.75H12.5C12.8978 19.75 13.2794 19.592 13.5607 19.3107C13.842 19.0294 14 18.6478 14 18.25V16.8125V16.75H14.0625H15.5C15.8978 16.75 16.2794 16.592 16.5607 16.3107C16.842 16.0294 17 15.6478 17 15.25V4.75C17.0001 4.65148 16.9807 4.55391 16.9431 4.46286C16.9055 4.37182 16.8503 4.28908 16.7806 4.21938L13.0306 0.469375ZM13.0306 0.469375L12.9864 0.513569C12.9225 0.449757 12.8467 0.399156 12.7633 0.364656C12.6798 0.330152 12.5904 0.312429 12.5 0.3125L12.5 0.3125L5 0.3125C4.61875 0.3125 4.25312 0.463951 3.98353 0.733534C3.71395 1.00312 3.5625 1.36875 3.5625 1.75V3.25V3.3125H3.5H2C1.61875 3.3125 1.25312 3.46395 0.983534 3.73353C0.71395 4.00312 0.5625 4.36875 0.5625 4.75V18.25C0.5625 18.6312 0.71395 18.9969 0.983534 19.2665C1.25312 19.536 1.61875 19.6875 2 19.6875H12.5C12.8812 19.6875 13.2469 19.536 13.5165 19.2665C13.786 18.9969 13.9375 18.6312 13.9375 18.25V16.75V16.6875H14H15.5C15.8812 16.6875 16.2469 16.536 16.5165 16.2665C16.786 15.9969 16.9375 15.6312 16.9375 15.25V4.75V4.74995C16.9376 4.65964 16.9198 4.5702 16.8853 4.48674C16.8508 4.40328 16.8002 4.32744 16.7364 4.26355M13.0306 0.469375L12.9865 0.513594L16.7364 4.26355M16.7364 4.26355L16.7364 4.26357L16.7805 4.21948L16.7364 4.26355ZM15.5 15.3125H15.5625V15.25V5.06031V5.03442L15.5442 5.01612L12.2339 1.70581L12.2156 1.6875H12.1897H5H4.9375V1.75V3.25V3.3125H5H9.5H9.50005C9.59036 3.31243 9.6798 3.33015 9.76326 3.36466C9.84671 3.39916 9.92254 3.44976 9.98643 3.51357C9.98644 3.51358 9.98645 3.51359 9.98646 3.51359L13.7364 7.26354C13.8002 7.32744 13.8508 7.40328 13.8853 7.48674C13.9198 7.5702 13.9376 7.65964 13.9375 7.74995V7.75V15.25V15.3125H14H15.5ZM14 15.1875V7.75L15.5 5.06031V15.1875V15.25H15.4375H14.0625H14V15.1875ZM5 16.0625H9.5C9.71549 16.0625 9.92215 15.9769 10.0745 15.8245C10.2269 15.6722 10.3125 15.4655 10.3125 15.25C10.3125 15.0345 10.2269 14.8278 10.0745 14.6755C9.92215 14.5231 9.71549 14.4375 9.5 14.4375H5C4.78451 14.4375 4.57785 14.5231 4.42548 14.6755C4.2731 14.8278 4.1875 15.0345 4.1875 15.25C4.1875 15.4655 4.2731 15.6722 4.42548 15.8245C4.57785 15.9769 4.78451 16.0625 5 16.0625ZM5 13.0625H9.5C9.71549 13.0625 9.92215 12.9769 10.0745 12.8245C10.2269 12.6722 10.3125 12.4655 10.3125 12.25C10.3125 12.0345 10.2269 11.8278 10.0745 11.6755C9.92215 11.5231 9.71549 11.4375 9.5 11.4375H5C4.78451 11.4375 4.57785 11.5231 4.42548 11.6755C4.2731 11.8278 4.1875 12.0345 4.1875 12.25C4.1875 12.4655 4.2731 12.6722 4.42548 12.8245C4.57785 12.9769 4.78451 13.0625 5 13.0625Z" fill="#06471E" stroke="#06471E" stroke-width="0.125"/>
</svg>
